<?xml version="1.0" encoding="UTF-8" standalone="no"?>
<!DOCTYPE svg PUBLIC "-//W3C//DTD SVG 20010904//EN"
              "http://www.w3.org/TR/2001/REC-SVG-20010904/DTD/svg10.dtd">

<svg xmlns="http://www.w3.org/2000/svg"
     width="43.3494mm" height="43.3494mm"
     viewBox="0 0 512 512">
  <path id="Unnamed"
        fill="none" stroke="black" strokeWidth="1"
        d="M 14.38,125.62
           C 14.38,125.62 14.25,382.00 14.25,382.00
             14.25,382.00 33.75,370.12 33.75,370.25
             33.75,370.38 33.88,161.62 33.88,161.62
             33.88,161.62 134.38,228.00 134.38,228.00
             134.38,228.00 234.88,161.88 234.88,161.88
             234.88,161.88 234.88,345.00 234.88,345.00
             234.88,345.00 133.50,278.50 133.50,278.50
             133.50,278.50 133.50,302.88 133.50,302.88
             133.50,302.88 249.88,379.12 249.88,379.12
             249.88,379.12 249.88,128.00 249.88,128.00
             249.88,128.00 134.38,203.25 134.38,203.25
             134.38,203.25 14.38,125.62 14.38,125.62 Z
           M 259.62,127.62
           C 259.62,127.62 259.62,379.25 259.62,379.25
             259.62,379.25 373.38,306.12 373.38,306.12
             373.38,306.12 373.38,201.25 373.38,201.25
             373.38,201.25 259.62,127.62 259.62,127.62 Z
           M 276.75,166.50
           C 276.75,166.50 276.25,344.88 276.25,344.88
             276.25,344.88 356.25,292.50 356.25,292.50
             356.25,292.50 356.25,217.38 356.25,217.38
             356.25,217.38 276.75,166.50 276.75,166.50 Z
           M 381.75,201.12
           C 381.75,201.12 381.62,306.00 381.62,306.00
             381.62,306.00 500.12,383.12 500.12,383.12
             500.12,383.12 500.25,293.75 500.25,293.75
             500.25,293.75 479.25,281.88 479.25,281.88
             479.25,281.88 479.25,345.88 479.25,346.00
             479.25,346.12 401.25,295.12 401.25,295.12
             401.25,295.12 400.88,271.25 400.88,271.25
             400.88,271.25 439.88,246.00 439.88,246.00
             439.88,246.00 439.62,220.75 439.62,220.75
             439.62,220.75 401.12,244.25 401.12,244.25
             401.12,244.25 401.00,215.50 401.00,215.50
             401.00,215.50 480.00,163.75 480.00,163.75
             480.00,163.75 479.62,196.50 479.62,196.50
             479.62,196.50 500.62,182.88 500.62,182.88
             500.62,182.88 500.50,125.50 500.50,125.50
             500.50,125.50 381.75,201.12 381.75,201.12 Z" />
</svg>
